<svg width="39" height="49" viewBox="0 0 39 49" fill="none" xmlns="http://www.w3.org/2000/svg">
<path d="M19.3333 25.1105C20.6625 25.1105 21.8007 24.6368 22.7481 23.6895C23.6938 22.7438 24.1667 21.6063 24.1667 20.2772C24.1667 18.948 23.6938 17.8098 22.7481 16.8624C21.8007 15.9167 20.6625 15.4438 19.3333 15.4438C18.0042 15.4438 16.8667 15.9167 15.921 16.8624C14.9737 17.8098 14.5 18.948 14.5 20.2772C14.5 21.6063 14.9737 22.7438 15.921 23.6895C16.8667 24.6368 18.0042 25.1105 19.3333 25.1105ZM19.3333 48.3709C19.0111 48.3709 18.6889 48.3105 18.3667 48.1897C18.0444 48.0688 17.7625 47.9077 17.5208 47.7063C11.6403 42.5105 7.25 37.6877 4.35 33.2378C1.45 28.7863 0 24.6272 0 20.7605C0 14.7188 1.94381 9.90565 5.83142 6.32093C9.71742 2.73621 14.2181 0.943848 19.3333 0.943848C24.4486 0.943848 28.9492 2.73621 32.8352 6.32093C36.7229 9.90565 38.6667 14.7188 38.6667 20.7605C38.6667 24.6272 37.2167 28.7863 34.3167 33.2378C31.4167 37.6877 27.0264 42.5105 21.1458 47.7063C20.9042 47.9077 20.6222 48.0688 20.3 48.1897C19.9778 48.3105 19.6556 48.3709 19.3333 48.3709Z" fill="#F31E2A"/>
</svg>
