<svg width="24" height="25" viewBox="0 0 24 25" fill="none" xmlns="http://www.w3.org/2000/svg">
<path d="M12 9.37109C11.2044 9.37109 10.4413 9.68716 9.87868 10.2498C9.31607 10.8124 9 11.5754 9 12.3711C9 13.1667 9.31607 13.9298 9.87868 14.4924C10.4413 15.055 11.2044 15.3711 12 15.3711C12.7956 15.3711 13.5587 15.055 14.1213 14.4924C14.6839 13.9298 15 13.1667 15 12.3711C15 11.5754 14.6839 10.8124 14.1213 10.2498C13.5587 9.68716 12.7956 9.37109 12 9.37109ZM12 17.3711C10.6739 17.3711 9.40215 16.8443 8.46447 15.9066C7.52678 14.9689 7 13.6972 7 12.3711C7 11.045 7.52678 9.77324 8.46447 8.83556C9.40215 7.89788 10.6739 7.37109 12 7.37109C13.3261 7.37109 14.5979 7.89788 15.5355 8.83556C16.4732 9.77324 17 11.045 17 12.3711C17 13.6972 16.4732 14.9689 15.5355 15.9066C14.5979 16.8443 13.3261 17.3711 12 17.3711ZM12 4.87109C7 4.87109 2.73 7.98109 1 12.3711C2.73 16.7611 7 19.8711 12 19.8711C17 19.8711 21.27 16.7611 23 12.3711C21.27 7.98109 17 4.87109 12 4.87109Z" fill="#001028"/>
</svg>
