<svg width="32" height="33" viewBox="0 0 32 33" fill="none" xmlns="http://www.w3.org/2000/svg">
<g clip-path="url(#clip0_28_104)">
<path fill-rule="evenodd" clip-rule="evenodd" d="M22.0695 30.4543C20.1495 30.3836 14.7082 29.6316 9.0095 23.9343C3.31216 18.2356 2.5615 12.7956 2.4895 10.8743C2.38283 7.94631 4.6255 5.10231 7.21616 3.99165C7.52813 3.85694 7.86976 3.80565 8.20754 3.84281C8.54531 3.87998 8.86762 4.00433 9.14283 4.20365C11.2762 5.75831 12.7482 8.11031 14.0122 9.95965C14.2903 10.366 14.4092 10.8604 14.3462 11.3487C14.2833 11.837 14.0429 12.2851 13.6708 12.6076L11.0695 14.5396C10.9438 14.6304 10.8554 14.7637 10.8205 14.9147C10.7857 15.0658 10.8069 15.2244 10.8802 15.361C11.4695 16.4316 12.5175 18.0263 13.7175 19.2263C14.9188 20.4263 16.5882 21.5436 17.7335 22.1996C17.8771 22.2803 18.0461 22.3028 18.2058 22.2626C18.3655 22.2224 18.5038 22.1226 18.5922 21.9836L20.2855 19.4063C20.5968 18.9928 21.0561 18.7157 21.5671 18.6332C22.0781 18.5507 22.6012 18.6691 23.0268 18.9636C24.9028 20.2623 27.0922 21.709 28.6948 23.761C28.9103 24.0382 29.0474 24.3682 29.0917 24.7165C29.1361 25.0648 29.086 25.4186 28.9468 25.741C27.8308 28.345 25.0068 30.5623 22.0695 30.4543Z" fill="#F31E2A"/>
</g>
<defs>
<clipPath id="clip0_28_104">
<rect width="32" height="32" fill="white" transform="translate(0 0.943848)"/>
</clipPath>
</defs>
</svg>
