<svg width="64" height="65" viewBox="0 0 64 65" fill="none" xmlns="http://www.w3.org/2000/svg">
<circle cx="32" cy="32.9438" r="31.5" fill="white" stroke="url(#paint0_linear_28_96)"/>
<path d="M38 32.9438C38 33.183 37.9618 33.4144 37.8855 33.638C37.8092 33.8628 37.7074 34.05 37.5802 34.1995L30.5573 42.4506C30.2774 42.7794 29.9211 42.9438 29.4885 42.9438C29.056 42.9438 28.6997 42.7794 28.4198 42.4506C28.1399 42.1217 28 41.7032 28 41.195C28 40.6867 28.1399 40.2682 28.4198 39.9394L34.374 32.9438L28.4198 25.9483C28.1399 25.6195 28 25.2009 28 24.6927C28 24.1845 28.1399 23.766 28.4198 23.4371C28.6997 23.1083 29.056 22.9438 29.4885 22.9438C29.9211 22.9438 30.2774 23.1083 30.5573 23.4371L37.5802 31.6882C37.7328 31.8676 37.8407 32.0619 37.9038 32.2712C37.9679 32.4805 38 32.7047 38 32.9438Z" fill="#F31E2A"/>
<defs>
<linearGradient id="paint0_linear_28_96" x1="32" y1="0.94385" x2="80.5808" y2="26.0478" gradientUnits="userSpaceOnUse">
<stop stop-color="#F31E2A"/>
<stop offset="0.736241" stop-color="#F31E2A" stop-opacity="0"/>
</linearGradient>
</defs>
</svg>
