<svg width="64" height="65" viewBox="0 0 64 65" fill="none" xmlns="http://www.w3.org/2000/svg">
<circle cx="32" cy="32.9438" r="31.5" fill="white" stroke="url(#paint0_linear_28_93)"/>
<path d="M26 32.9438C26 32.7047 26.0382 32.4733 26.1145 32.2497C26.1908 32.0249 26.2926 31.8377 26.4198 31.6882L33.4427 23.4371C33.7226 23.1083 34.0789 22.9438 34.5115 22.9438C34.944 22.9438 35.3003 23.1083 35.5802 23.4371C35.8601 23.766 36 24.1845 36 24.6927C36 25.2009 35.8601 25.6195 35.5802 25.9483L29.626 32.9438L35.5802 39.9394C35.8601 40.2682 36 40.6867 36 41.195C36 41.7032 35.8601 42.1217 35.5802 42.4506C35.3003 42.7794 34.944 42.9438 34.5115 42.9438C34.0789 42.9438 33.7226 42.7794 33.4427 42.4506L26.4198 34.1995C26.2672 34.0201 26.1593 33.8258 26.0962 33.6165C26.0321 33.4072 26 33.183 26 32.9438Z" fill="#F31E2A"/>
<defs>
<linearGradient id="paint0_linear_28_93" x1="32" y1="0.94385" x2="80.5808" y2="26.0478" gradientUnits="userSpaceOnUse">
<stop stop-color="#F31E2A"/>
<stop offset="0.736241" stop-color="#F31E2A" stop-opacity="0"/>
</linearGradient>
</defs>
</svg>
