<svg width="12" height="10" viewBox="0 0 12 10" fill="none" xmlns="http://www.w3.org/2000/svg">
<path d="M6 5C5.8565 5 5.71767 4.98092 5.5835 4.94275C5.44861 4.90458 5.33632 4.85369 5.24664 4.79008L0.295964 1.27863C0.0986543 1.13868 0 0.960559 0 0.744274C0 0.527989 0.0986543 0.349872 0.295964 0.209923C0.493273 0.0699743 0.744394 0 1.04933 0C1.35426 0 1.60538 0.0699743 1.80269 0.209923L6 3.18702L10.1973 0.209923C10.3946 0.0699743 10.6457 0 10.9507 0C11.2556 0 11.5067 0.0699743 11.704 0.209923C11.9013 0.349872 12 0.527989 12 0.744274C12 0.960559 11.9013 1.13868 11.704 1.27863L6.75336 4.79008C6.64574 4.86641 6.52915 4.92036 6.40359 4.95191C6.27803 4.98397 6.1435 5 6 5Z" fill="white"/>
<path d="M6 10C5.8565 10 5.71767 9.98092 5.5835 9.94275C5.44861 9.90458 5.33632 9.85369 5.24664 9.79008L0.295964 6.27863C0.0986543 6.13868 0 5.96056 0 5.74427C0 5.52799 0.0986543 5.34987 0.295964 5.20992C0.493273 5.06997 0.744394 5 1.04933 5C1.35426 5 1.60538 5.06997 1.80269 5.20992L6 8.18702L10.1973 5.20992C10.3946 5.06997 10.6457 5 10.9507 5C11.2556 5 11.5067 5.06997 11.704 5.20992C11.9013 5.34987 12 5.52799 12 5.74427C12 5.96056 11.9013 6.13868 11.704 6.27863L6.75336 9.79008C6.64574 9.86641 6.52915 9.92036 6.40359 9.95191C6.27803 9.98397 6.1435 10 6 10Z" fill="white"/>
</svg>
