<svg width="24" height="25" viewBox="0 0 24 25" fill="none" xmlns="http://www.w3.org/2000/svg">
<path d="M8.12016 10.2339L12.0002 14.1139L15.8802 10.2339C15.9727 10.1413 16.0827 10.0679 16.2036 10.0178C16.3246 9.96768 16.4542 9.94189 16.5852 9.94189C16.7161 9.94189 16.8457 9.96768 16.9667 10.0178C17.0877 10.0679 17.1976 10.1413 17.2902 10.2339C17.3827 10.3265 17.4562 10.4364 17.5063 10.5574C17.5564 10.6783 17.5822 10.808 17.5822 10.9389C17.5822 11.0698 17.5564 11.1995 17.5063 11.3205C17.4562 11.4414 17.3827 11.5513 17.2902 11.6439L12.7002 16.2339C12.6076 16.3266 12.4978 16.4002 12.3768 16.4503C12.2558 16.5005 12.1261 16.5264 11.9952 16.5264C11.8642 16.5264 11.7345 16.5005 11.6135 16.4503C11.4926 16.4002 11.3827 16.3266 11.2902 16.2339L6.70016 11.6439C6.60746 11.5514 6.53391 11.4415 6.48373 11.3205C6.43354 11.1996 6.40771 11.0699 6.40771 10.9389C6.40771 10.8079 6.43354 10.6783 6.48373 10.5573C6.53391 10.4363 6.60746 10.3264 6.70016 10.2339C7.09016 9.85392 7.73016 9.84392 8.12016 10.2339Z" fill="black"/>
</svg>
