<svg width="24" height="25" viewBox="0 0 24 25" fill="none" xmlns="http://www.w3.org/2000/svg">
<g clip-path="url(#clip0_28_77)">
<path d="M24 12.9312C24 6.30378 18.6274 0.931152 12 0.931152C5.37262 0.931152 0 6.30368 0 12.9312C0 18.9207 4.38825 23.8852 10.125 24.7854V16.3999H7.07812V12.9312H10.125V10.2874C10.125 7.2799 11.9166 5.61865 14.6575 5.61865C15.9705 5.61865 17.3438 5.85303 17.3438 5.85303V8.80615H15.8306C14.3398 8.80615 13.875 9.73118 13.875 10.6802V12.9312H17.2031L16.6711 16.3999H13.875V24.7854C19.6117 23.8852 24 18.9207 24 12.9312Z" fill="#1877F2"/>
<path d="M16.6711 16.3999L17.2031 12.9312H13.875V10.6802C13.875 9.73109 14.3399 8.80615 15.8306 8.80615H17.3438V5.85303C17.3438 5.85303 15.9705 5.61865 14.6575 5.61865C11.9166 5.61865 10.125 7.2799 10.125 10.2874V12.9312H7.07812V16.3999H10.125V24.7854C10.7453 24.8826 11.3722 24.9313 12 24.9312C12.6278 24.9313 13.2547 24.8826 13.875 24.7854V16.3999H16.6711Z" fill="white"/>
</g>
<defs>
<clipPath id="clip0_28_77">
<rect width="24" height="24" fill="white" transform="translate(0 0.931152)"/>
</clipPath>
</defs>
</svg>
