<svg width="32" height="33" viewBox="0 0 32 33" fill="none" xmlns="http://www.w3.org/2000/svg">
<path d="M20.536 28.9438V19.6558H23.6467L24.112 16.0452H20.536V13.7412C20.536 12.6958 20.8267 11.9825 22.3253 11.9825H24.2373V8.75318C23.3117 8.65497 22.3815 8.60735 21.4507 8.61051C18.6947 8.61051 16.808 10.2932 16.808 13.3838V16.0452H13.6907V19.6558H16.808V28.9438H5.33333C4.97971 28.9438 4.64057 28.8034 4.39052 28.5533C4.14048 28.3033 4 27.9641 4 27.6105V6.27718C4 5.92356 4.14048 5.58442 4.39052 5.33437C4.64057 5.08432 4.97971 4.94385 5.33333 4.94385H26.6667C27.0203 4.94385 27.3594 5.08432 27.6095 5.33437C27.8595 5.58442 28 5.92356 28 6.27718V27.6105C28 27.9641 27.8595 28.3033 27.6095 28.5533C27.3594 28.8034 27.0203 28.9438 26.6667 28.9438H20.536Z" fill="#F31E2A"/>
</svg>
