<svg width="24" height="25" viewBox="0 0 24 25" fill="none" xmlns="http://www.w3.org/2000/svg">
<g clip-path="url(#clip0_28_72)">
<path d="M23.9877 12.8811C23.9877 11.8749 23.906 11.1406 23.7293 10.3792H12.2393V14.9207H18.9837C18.8478 16.0494 18.1135 17.7491 16.4817 18.8913L16.4588 19.0433L20.0918 21.8577L20.3435 21.8828C22.6551 19.748 23.9877 16.6069 23.9877 12.8811Z" fill="#4285F4"/>
<path d="M12.2392 24.8471C15.5434 24.8471 18.3174 23.7592 20.3435 21.8828L16.4817 18.8912C15.4483 19.6119 14.0613 20.115 12.2392 20.115C9.00301 20.115 6.25629 17.9802 5.27716 15.0295L5.13364 15.0417L1.35604 17.9652L1.30664 18.1026C3.31908 22.1003 7.4528 24.8471 12.2392 24.8471Z" fill="#34A853"/>
<path d="M5.27684 15.0294C5.01849 14.2679 4.86897 13.452 4.86897 12.609C4.86897 11.7659 5.01849 10.95 5.26325 10.1886L5.25641 10.0264L1.43147 7.05591L1.30633 7.11543C0.476902 8.77438 0.000976562 10.6373 0.000976562 12.609C0.000976562 14.5806 0.476902 16.4435 1.30633 18.1024L5.27684 15.0294Z" fill="#FBBC05"/>
<path d="M12.2392 5.10307C14.5372 5.10307 16.0873 6.0957 16.9712 6.92522L20.425 3.55296C18.3039 1.5813 15.5434 0.371094 12.2392 0.371094C7.4528 0.371094 3.31908 3.11781 1.30664 7.11552L5.26356 10.1886C6.25629 7.23794 9.00301 5.10307 12.2392 5.10307Z" fill="#EB4335"/>
</g>
<defs>
<clipPath id="clip0_28_72">
<rect width="24" height="24.5603" fill="white" transform="translate(0 0.371094)"/>
</clipPath>
</defs>
</svg>
