<svg width="64" height="65" viewBox="0 0 64 65" fill="none" xmlns="http://www.w3.org/2000/svg">
<path d="M19.375 23.5689C19.0953 23.2902 18.8734 22.959 18.722 22.5943C18.5706 22.2297 18.4926 21.8387 18.4926 21.4439C18.4926 21.049 18.5706 20.6581 18.722 20.2934C18.8734 19.9288 19.0953 19.5976 19.375 19.3189L29.875 8.81889C30.1537 8.53921 30.4849 8.3173 30.8495 8.16588C31.2142 8.01447 31.6052 7.93652 32 7.93652C32.3948 7.93652 32.7858 8.01447 33.1505 8.16588C33.5151 8.3173 33.8463 8.53921 34.125 8.81889L44.625 19.3189C44.9047 19.5976 45.1266 19.9288 45.278 20.2934C45.4294 20.6581 45.5074 21.049 45.5074 21.4439C45.5074 21.8387 45.4294 22.2297 45.278 22.5943C45.1266 22.959 44.9047 23.2902 44.625 23.5689C44.0589 24.1277 43.2954 24.441 42.5 24.441C41.7046 24.441 40.9411 24.1277 40.375 23.5689L35 18.1939V38.9439C35 39.7395 34.6839 40.5026 34.1213 41.0652C33.5587 41.6278 32.7956 41.9439 32 41.9439C31.2044 41.9439 30.4413 41.6278 29.8787 41.0652C29.3161 40.5026 29 39.7395 29 38.9439V18.1939L23.625 23.5689C23.3463 23.8486 23.0151 24.0705 22.6505 24.2219C22.2858 24.3733 21.8948 24.4513 21.5 24.4513C21.1052 24.4513 20.7142 24.3733 20.3495 24.2219C19.9849 24.0705 19.6537 23.8486 19.375 23.5689ZM54 35.9439C53.2043 35.9439 52.4413 36.26 51.8787 36.8226C51.3161 37.3852 51 38.1482 51 38.9439V51.9439H13V38.9439C13 38.1482 12.6839 37.3852 12.1213 36.8226C11.5587 36.26 10.7956 35.9439 10 35.9439C9.20435 35.9439 8.44129 36.26 7.87868 36.8226C7.31607 37.3852 7 38.1482 7 38.9439V52.9439C7.00657 54.2679 7.53547 55.5359 8.47173 56.4722C9.40799 57.4084 10.6759 57.9373 12 57.9439H52C53.3241 57.9373 54.592 57.4084 55.5283 56.4722C56.4645 55.5359 56.9934 54.2679 57 52.9439V38.9439C57 38.1482 56.6839 37.3852 56.1213 36.8226C55.5587 36.26 54.7957 35.9439 54 35.9439Z" fill="#8D8D8D"/>
</svg>
