<svg width="24" height="25" viewBox="0 0 24 25" fill="none" xmlns="http://www.w3.org/2000/svg">
<path d="M12 17.9312C12.2833 17.9312 12.521 17.8352 12.713 17.6432C12.9043 17.4518 13 17.2145 13 16.9312V12.9062C13 12.6228 12.9043 12.3895 12.713 12.2062C12.521 12.0228 12.2833 11.9312 12 11.9312C11.7167 11.9312 11.4793 12.0268 11.288 12.2182C11.096 12.4102 11 12.6478 11 12.9312V16.9562C11 17.2395 11.096 17.4728 11.288 17.6562C11.4793 17.8395 11.7167 17.9312 12 17.9312ZM12 9.93115C12.2833 9.93115 12.521 9.83515 12.713 9.64315C12.9043 9.45182 13 9.21449 13 8.93115C13 8.64782 12.9043 8.41015 12.713 8.21815C12.521 8.02682 12.2833 7.93115 12 7.93115C11.7167 7.93115 11.4793 8.02682 11.288 8.21815C11.096 8.41015 11 8.64782 11 8.93115C11 9.21449 11.096 9.45182 11.288 9.64315C11.4793 9.83515 11.7167 9.93115 12 9.93115ZM12 22.9312C10.6167 22.9312 9.31667 22.6685 8.1 22.1432C6.88333 21.6185 5.825 20.9062 4.925 20.0062C4.025 19.1062 3.31267 18.0478 2.788 16.8312C2.26267 15.6145 2 14.3145 2 12.9312C2 11.5478 2.26267 10.2478 2.788 9.03115C3.31267 7.81449 4.025 6.75615 4.925 5.85615C5.825 4.95615 6.88333 4.24349 8.1 3.71815C9.31667 3.19349 10.6167 2.93115 12 2.93115C13.3833 2.93115 14.6833 3.19349 15.9 3.71815C17.1167 4.24349 18.175 4.95615 19.075 5.85615C19.975 6.75615 20.6873 7.81449 21.212 9.03115C21.7373 10.2478 22 11.5478 22 12.9312C22 14.3145 21.7373 15.6145 21.212 16.8312C20.6873 18.0478 19.975 19.1062 19.075 20.0062C18.175 20.9062 17.1167 21.6185 15.9 22.1432C14.6833 22.6685 13.3833 22.9312 12 22.9312Z" fill="#F31E2A"/>
</svg>
