<svg width="23" height="23" viewBox="0 0 23 23" fill="none" xmlns="http://www.w3.org/2000/svg">
<path d="M11.4711 16.7302C12.6662 16.7302 13.6821 16.3121 14.5189 15.4759C15.3551 14.6391 15.7732 13.6232 15.7732 12.4282C15.7732 11.2332 15.3551 10.2173 14.5189 9.38045C13.6821 8.54426 12.6662 8.12617 11.4711 8.12617C10.2761 8.12617 9.26024 8.54426 8.42342 9.38045C7.58723 10.2173 7.16914 11.2332 7.16914 12.4282C7.16914 13.6232 7.58723 14.6391 8.42342 15.4759C9.26024 16.3121 10.2761 16.7302 11.4711 16.7302ZM11.4711 14.8182C10.8019 14.8182 10.2363 14.5871 9.77425 14.1251C9.31218 13.663 9.08114 13.0974 9.08114 12.4282C9.08114 11.759 9.31218 11.1933 9.77425 10.7313C10.2363 10.2692 10.8019 10.0382 11.4711 10.0382C12.1403 10.0382 12.706 10.2692 13.1681 10.7313C13.6301 11.1933 13.8612 11.759 13.8612 12.4282C13.8612 13.0974 13.6301 13.663 13.1681 14.1251C12.706 14.5871 12.1403 14.8182 11.4711 14.8182ZM3.82314 20.0762C3.29734 20.0762 2.84738 19.8891 2.47326 19.515C2.09851 19.1403 1.91113 18.69 1.91113 18.1642V6.69217C1.91113 6.16637 2.09851 5.71641 2.47326 5.3423C2.84738 4.96754 3.29734 4.78017 3.82314 4.78017H6.83454L8.60314 2.86816H14.3392L16.1078 4.78017H19.1192C19.645 4.78017 20.0952 4.96754 20.47 5.3423C20.8441 5.71641 21.0312 6.16637 21.0312 6.69217V18.1642C21.0312 18.69 20.8441 19.1403 20.47 19.515C20.0952 19.8891 19.645 20.0762 19.1192 20.0762H3.82314ZM19.1192 18.1642V6.69217H15.2474L13.5027 4.78017H9.43965L7.69494 6.69217H3.82314V18.1642H19.1192Z" fill="#F31E2A"/>
</svg>
