<svg width="32" height="33" viewBox="0 0 32 33" fill="none" xmlns="http://www.w3.org/2000/svg">
<path d="M16.0002 16.9437C16.7335 16.9437 17.3615 16.6824 17.8842 16.1597C18.4059 15.6379 18.6668 15.0104 18.6668 14.277C18.6668 13.5437 18.4059 12.9157 17.8842 12.393C17.3615 11.8712 16.7335 11.6104 16.0002 11.6104C15.2668 11.6104 14.6393 11.8712 14.1175 12.393C13.5948 12.9157 13.3335 13.5437 13.3335 14.277C13.3335 15.0104 13.5948 15.6379 14.1175 16.1597C14.6393 16.6824 15.2668 16.9437 16.0002 16.9437ZM16.0002 29.777C15.8224 29.777 15.6446 29.7437 15.4668 29.677C15.2891 29.6103 15.1335 29.5215 15.0002 29.4104C11.7557 26.5437 9.3335 23.8828 7.7335 21.4277C6.1335 18.9717 5.3335 16.677 5.3335 14.5437C5.3335 11.2104 6.40594 8.5548 8.55083 6.57702C10.6948 4.59924 13.1779 3.61035 16.0002 3.61035C18.8224 3.61035 21.3055 4.59924 23.4495 6.57702C25.5944 8.5548 26.6668 11.2104 26.6668 14.5437C26.6668 16.677 25.8668 18.9717 24.2668 21.4277C22.6668 23.8828 20.2446 26.5437 17.0002 29.4104C16.8668 29.5215 16.7113 29.6103 16.5335 29.677C16.3557 29.7437 16.1779 29.777 16.0002 29.777Z" fill="#F31E2A"/>
</svg>
