<svg width="32" height="33" viewBox="0 0 32 33" fill="none" xmlns="http://www.w3.org/2000/svg">
<path d="M26.6665 5.70435H5.33317C3.8665 5.70435 2.6665 6.90435 2.6665 8.37101V24.371C2.6665 25.8377 3.8665 27.0377 5.33317 27.0377H26.6665C28.1332 27.0377 29.3332 25.8377 29.3332 24.371V8.37101C29.3332 6.90435 28.1332 5.70435 26.6665 5.70435ZM26.1332 11.371L17.4132 16.8243C16.5465 17.371 15.4532 17.371 14.5865 16.8243L5.8665 11.371C5.73281 11.296 5.61573 11.1946 5.52236 11.073C5.42898 10.9513 5.36125 10.812 5.32327 10.6635C5.28529 10.515 5.27784 10.3603 5.30138 10.2088C5.32492 10.0573 5.37895 9.9121 5.46021 9.78208C5.54147 9.65206 5.64827 9.53989 5.77414 9.45234C5.90001 9.36479 6.04233 9.30369 6.1925 9.27274C6.34266 9.24179 6.49755 9.24163 6.64778 9.27228C6.79801 9.30292 6.94045 9.36372 7.0665 9.45101L15.9998 15.0377L24.9332 9.45101C25.0592 9.36372 25.2017 9.30292 25.3519 9.27228C25.5021 9.24163 25.657 9.24179 25.8072 9.27274C25.9573 9.30369 26.0997 9.36479 26.2255 9.45234C26.3514 9.53989 26.4582 9.65206 26.5395 9.78208C26.6207 9.9121 26.6748 10.0573 26.6983 10.2088C26.7218 10.3603 26.7144 10.515 26.6764 10.6635C26.6384 10.812 26.5707 10.9513 26.4773 11.073C26.3839 11.1946 26.2669 11.296 26.1332 11.371Z" fill="white"/>
</svg>
