<svg width="40" height="41" viewBox="0 0 40 41" fill="none" xmlns="http://www.w3.org/2000/svg">
<g clip-path="url(#clip0_28_81)">
<path d="M20 33.4312C19.6685 33.4312 19.3505 33.2995 19.1161 33.065C18.8817 32.8306 18.75 32.5127 18.75 32.1812V27.1812C18.75 26.8496 18.8817 26.5317 19.1161 26.2973C19.3505 26.0628 19.6685 25.9312 20 25.9312C20.3315 25.9312 20.6495 26.0628 20.8839 26.2973C21.1183 26.5317 21.25 26.8496 21.25 27.1812V32.1812C21.25 32.5127 21.1183 32.8306 20.8839 33.065C20.6495 33.2995 20.3315 33.4312 20 33.4312ZM10 13.4312C10 10.779 11.0536 8.23545 12.9289 6.36008C14.8043 4.48472 17.3478 3.43115 20 3.43115C22.6522 3.43115 25.1957 4.48472 27.0711 6.36008C28.9464 8.23545 30 10.779 30 13.4312L30 28.4312C30 31.0833 28.9464 33.6269 27.0711 35.5022C25.1957 37.3776 22.6522 38.4312 20 38.4312C17.3478 38.4312 14.8043 37.3776 12.9289 35.5022C11.0536 33.6269 10 31.0833 10 28.4312L10 13.4312ZM20 40.9312C23.3152 40.9312 26.4946 39.6142 28.8388 37.27C31.183 34.9258 32.5 31.7464 32.5 28.4312V13.4312C32.5 10.1159 31.183 6.93652 28.8388 4.59232C26.4946 2.24811 23.3152 0.931152 20 0.931152C16.6848 0.931152 13.5054 2.24811 11.1612 4.59232C8.81696 6.93652 7.5 10.1159 7.5 13.4312L7.5 28.4312C7.5 31.7464 8.81696 34.9258 11.1612 37.27C13.5054 39.6142 16.6848 40.9312 20 40.9312Z" fill="white"/>
</g>
<defs>
<clipPath id="clip0_28_81">
<rect width="40" height="40" fill="white" transform="matrix(-1 0 0 -1 40 40.9312)"/>
</clipPath>
</defs>
</svg>
